<?xml version="1.0" standalone="no"?>
<!DOCTYPE svg PUBLIC "-//W3C//DTD SVG 20010904//EN"
 "http://www.w3.org/TR/2001/REC-SVG-20010904/DTD/svg10.dtd">
<svg version="1.0" xmlns="http://www.w3.org/2000/svg"
 width="700.000000pt" height="700.000000pt" viewBox="0 0 700.000000 700.000000"
 preserveAspectRatio="xMidYMid meet">
<metadata>
Created by potrace 1.11, written by Peter Selinger 2001-2013
</metadata>
<g transform="translate(0.000000,700.000000) scale(0.100000,-0.100000)"
fill="#000000" stroke="none">
<path d="M1739 6495 c0 -11 -2 -29 -4 -40 -2 -11 -7 -36 -10 -55 -13 -72 -125
-258 -300 -500 -223 -308 -321 -500 -390 -770 -59 -227 -48 -426 32 -608 34
-78 122 -208 175 -258 89 -86 158 -126 591 -348 115 -59 239 -125 275 -148 99
-60 142 -104 90 -92 -175 41 -243 49 -408 47 -129 -1 -171 -6 -327 -39 -12 -2
-34 -9 -48 -14 -14 -5 -25 -8 -25 -6 0 8 -162 -53 -188 -70 l-25 -17 34 -12
c180 -65 290 -121 457 -234 196 -132 351 -268 446 -393 l28 -37 -22 -58 c-36
-95 -100 -314 -100 -343 0 -32 23 -53 115 -107 95 -56 264 -193 383 -312 129
-128 227 -277 310 -471 18 -42 44 -159 57 -255 23 -165 43 -236 90 -329 29
-55 110 -174 135 -196 3 -3 18 -21 33 -40 38 -47 218 -229 254 -257 15 -12 39
-31 52 -42 42 -37 58 -36 114 7 95 71 267 253 380 400 105 137 148 247 172
442 3 25 7 56 10 70 2 13 7 42 11 63 16 110 110 307 216 455 85 118 156 189
348 348 52 43 166 120 228 154 27 15 45 33 49 50 8 31 -26 167 -78 312 l-38
108 41 52 c171 220 548 489 831 592 42 15 79 32 82 36 8 13 -72 45 -210 83
-194 54 -241 61 -420 62 -142 0 -226 -8 -323 -30 -80 -19 -88 -19 -73 -1 27
33 142 101 332 196 112 56 238 121 279 143 41 22 100 53 130 70 167 89 272
186 354 325 52 89 100 218 112 303 35 243 -61 611 -234 899 -25 41 -109 165
-187 275 -234 329 -300 450 -307 565 -1 22 -6 40 -10 40 -15 0 -67 -82 -89
-139 -73 -193 -69 -390 16 -666 30 -98 71 -240 80 -280 13 -50 15 -178 4 -225
-17 -73 -65 -165 -111 -212 -105 -105 -313 -160 -583 -153 -97 2 -139 7 -165
19 l-35 17 1 100 c5 336 -197 603 -564 744 -39 16 -75 26 -77 23 -6 -5 1 -24
36 -103 64 -148 87 -272 86 -459 0 -135 -17 -233 -59 -351 -54 -149 -151 -240
-273 -252 -139 -14 -264 86 -324 262 -44 131 -59 226 -56 368 5 194 18 255 91
420 24 55 44 106 44 113 0 10 -18 7 -72 -13 -151 -54 -220 -90 -297 -158 -207
-180 -293 -362 -295 -624 -1 -74 -1 -75 -31 -83 -122 -34 -353 -27 -515 17
-173 47 -259 116 -311 248 -28 72 -32 93 -32 177 0 58 7 121 18 160 9 36 18
72 20 80 2 8 15 51 30 95 27 86 61 211 69 260 17 99 20 138 20 205 0 41 -3 90
-8 109 -19 92 -88 256 -122 291 -12 12 -14 12 -15 -5z m2668 -3267 c27 -49 26
-300 -1 -378 -44 -129 -106 -210 -199 -262 -54 -30 -336 -158 -349 -158 -12 0
-10 48 8 130 17 80 18 86 35 170 18 91 101 250 168 322 70 75 174 149 257 183
32 14 60 25 61 25 1 0 10 -15 20 -32z m-1707 -5 c75 -34 221 -145 261 -198 72
-96 133 -234 154 -350 3 -16 12 -66 20 -110 8 -44 15 -93 15 -108 0 -32 -7
-31 -85 3 -22 10 -85 38 -141 62 -199 88 -271 159 -326 325 -30 92 -34 319 -5
371 20 37 36 38 107 5z m452 -1637 c89 -69 148 -202 141 -320 -4 -76 -13 -86
-59 -61 -60 32 -127 134 -140 212 -6 34 -8 121 -5 181 1 30 10 28 63 -12z
m759 -8 c6 -130 -2 -180 -35 -246 -31 -60 -71 -105 -118 -131 l-37 -20 -7 36
c-9 50 2 159 22 218 12 34 37 69 79 112 70 72 94 80 96 31z"/>
</g>
</svg>
